<svg width="1213" height="278" viewBox="0 0 1213 278" fill="none" xmlns="http://www.w3.org/2000/svg">
<path d="M231.111 187.074C224.829 187.074 219.49 186.749 215.096 186.098C210.701 185.479 207.153 184.193 204.451 182.24C201.749 180.255 199.78 177.292 198.543 173.354C197.306 169.415 196.688 164.158 196.688 157.582C196.688 151.202 197.306 146.091 198.543 142.25C199.78 138.409 201.749 135.512 204.451 133.559C207.153 131.605 210.701 130.303 215.096 129.652C219.49 129.001 224.829 128.676 231.111 128.676C237.426 128.676 242.765 129.001 247.127 129.652C251.521 130.303 255.07 131.605 257.771 133.559C260.473 135.512 262.443 138.409 263.68 142.25C264.917 146.091 265.535 151.202 265.535 157.582C265.535 164.158 264.917 169.415 263.68 173.354C262.443 177.292 260.473 180.255 257.771 182.24C255.07 184.193 251.521 185.479 247.127 186.098C242.765 186.749 237.426 187.074 231.111 187.074ZM256.16 157.582C256.16 152.927 255.916 149.2 255.428 146.4C254.972 143.601 253.947 141.501 252.352 140.102C250.757 138.669 248.266 137.709 244.881 137.221C241.528 136.732 236.938 136.488 231.111 136.488C225.317 136.488 220.727 136.732 217.342 137.221C213.956 137.709 211.466 138.669 209.871 140.102C208.276 141.501 207.234 143.601 206.746 146.4C206.29 149.2 206.062 152.927 206.062 157.582C206.062 162.4 206.29 166.257 206.746 169.154C207.234 172.051 208.276 174.232 209.871 175.697C211.466 177.13 213.956 178.09 217.342 178.578C220.727 179.034 225.317 179.262 231.111 179.262C236.938 179.262 241.528 179.034 244.881 178.578C248.266 178.09 250.757 177.13 252.352 175.697C253.947 174.232 254.972 172.051 255.428 169.154C255.916 166.257 256.16 162.4 256.16 157.582ZM307.334 187.074C301.051 187.074 295.713 186.749 291.318 186.098C286.924 185.479 283.376 184.193 280.674 182.24C277.972 180.255 276.003 177.292 274.766 173.354C273.529 169.415 272.91 164.158 272.91 157.582C272.91 151.202 273.529 146.091 274.766 142.25C276.003 138.409 277.972 135.512 280.674 133.559C283.376 131.605 286.924 130.303 291.318 129.652C295.713 129.001 301.051 128.676 307.334 128.676C313.356 128.676 318.434 129.132 322.568 130.043C326.735 130.954 330.007 132.989 332.383 136.146V111H341.758V186H332.383V179.555C330.007 182.745 326.735 184.796 322.568 185.707C318.434 186.618 313.356 187.074 307.334 187.074ZM332.383 157.582C332.383 152.927 332.057 149.2 331.406 146.4C330.755 143.601 329.551 141.501 327.793 140.102C326.035 138.669 323.512 137.709 320.225 137.221C316.937 136.732 312.64 136.488 307.334 136.488C301.54 136.488 296.95 136.732 293.564 137.221C290.179 137.709 287.689 138.669 286.094 140.102C284.499 141.501 283.457 143.601 282.969 146.4C282.513 149.2 282.285 152.927 282.285 157.582C282.285 162.4 282.513 166.257 282.969 169.154C283.457 172.051 284.499 174.232 286.094 175.697C287.689 177.13 290.179 178.09 293.564 178.578C296.95 179.034 301.54 179.262 307.334 179.262C312.64 179.262 316.937 179.034 320.225 178.578C323.512 178.09 326.035 177.13 327.793 175.697C329.551 174.232 330.755 172.051 331.406 169.154C332.057 166.257 332.383 162.4 332.383 157.582ZM352.453 186V132.875H361.828V186H352.453ZM352.453 120.375V111H361.828V120.375H352.453ZM372.523 186V129.75H381.898V137.221C383.298 135.333 385.023 133.754 387.074 132.484C389.158 131.215 391.924 130.271 395.375 129.652C398.858 129.001 403.415 128.676 409.047 128.676C416.404 128.676 422.198 129.392 426.43 130.824C430.694 132.257 433.721 134.812 435.512 138.49C437.302 142.169 438.197 147.377 438.197 154.115V186H428.773V154.115C428.773 150.274 428.448 147.182 427.797 144.838C427.146 142.494 426.023 140.72 424.428 139.516C422.865 138.311 420.701 137.514 417.934 137.123C415.167 136.7 411.651 136.488 407.387 136.488C400.876 136.488 395.766 137.025 392.055 138.1C388.344 139.174 385.723 140.867 384.193 143.178C382.663 145.456 381.898 148.435 381.898 152.113V186H372.523ZM483.072 207.436C478.092 207.436 473.551 207.305 469.449 207.045C465.38 206.817 461.881 206.231 458.951 205.287C456.021 204.376 453.759 202.911 452.164 200.893C450.569 198.907 449.771 196.173 449.771 192.689H459.146C459.146 194.968 460.025 196.596 461.783 197.572C463.574 198.549 466.243 199.135 469.791 199.33C473.339 199.525 477.766 199.623 483.072 199.623C487.011 199.623 490.38 199.493 493.18 199.232C495.979 199.005 498.258 198.305 500.016 197.133C501.806 195.961 503.108 193.992 503.922 191.225C504.768 188.49 505.191 184.633 505.191 179.652V178.334C502.913 181.264 499.771 183.201 495.768 184.145C491.796 185.089 486.865 185.561 480.973 185.561C474.885 185.561 469.693 185.219 465.396 184.535C461.1 183.819 457.6 182.484 454.898 180.531C452.229 178.578 450.276 175.746 449.039 172.035C447.802 168.324 447.184 163.474 447.184 157.484C447.184 151.104 447.802 145.993 449.039 142.152C450.276 138.311 452.229 135.43 454.898 133.51C457.6 131.557 461.1 130.271 465.396 129.652C469.693 129.001 474.885 128.676 480.973 128.676C486.865 128.676 491.796 129.115 495.768 129.994C499.771 130.84 502.913 132.745 505.191 135.707V129.75H514.566V180.043C514.436 186.228 513.655 191.143 512.223 194.789C510.79 198.467 508.74 201.202 506.07 202.992C503.434 204.815 500.178 206.003 496.305 206.557C492.464 207.143 488.053 207.436 483.072 207.436ZM505.191 157.484C505.191 152.829 504.898 149.118 504.312 146.352C503.759 143.552 502.652 141.452 500.992 140.053C499.365 138.62 496.939 137.676 493.717 137.221C490.527 136.732 486.279 136.488 480.973 136.488C475.374 136.488 470.93 136.732 467.643 137.221C464.387 137.676 461.962 138.62 460.367 140.053C458.772 141.452 457.73 143.552 457.242 146.352C456.786 149.118 456.559 152.829 456.559 157.484C456.559 161.716 456.786 165.167 457.242 167.836C457.73 170.505 458.756 172.556 460.318 173.988C461.913 175.421 464.355 176.413 467.643 176.967C470.93 177.488 475.374 177.748 480.973 177.748C486.279 177.748 490.527 177.488 493.717 176.967C496.939 176.413 499.365 175.421 500.992 173.988C502.652 172.556 503.759 170.505 504.312 167.836C504.898 165.167 505.191 161.716 505.191 157.484ZM581.223 186V111H590.988L666.33 174.428H666.428V111H675.803V186H666.037L590.695 122.035H590.598V186H581.223ZM753.881 169.301C753.881 173.5 753.246 176.804 751.977 179.213C750.74 181.622 748.835 183.38 746.264 184.486C743.692 185.593 740.404 186.293 736.4 186.586C732.429 186.911 727.693 187.074 722.191 187.074C715.909 187.074 710.57 186.749 706.176 186.098C701.814 185.479 698.282 184.193 695.58 182.24C692.911 180.255 690.958 177.292 689.721 173.354C688.516 169.415 687.914 164.158 687.914 157.582C687.914 151.202 688.5 146.091 689.672 142.25C690.876 138.409 692.813 135.512 695.482 133.559C698.152 131.605 701.651 130.303 705.98 129.652C710.342 129.001 715.665 128.676 721.947 128.676C729.141 128.676 735.098 129.18 739.818 130.189C744.538 131.199 748.054 133.119 750.365 135.951C752.709 138.783 753.881 142.934 753.881 148.402V160.463H697.338C697.37 164.63 697.663 167.966 698.217 170.473C698.77 172.979 699.877 174.867 701.537 176.137C703.197 177.406 705.671 178.253 708.959 178.676C712.279 179.066 716.69 179.262 722.191 179.262C727.139 179.262 731.127 179.164 734.154 178.969C737.214 178.773 739.525 178.35 741.088 177.699C742.683 177.016 743.757 176.007 744.311 174.672C744.864 173.337 745.141 171.547 745.141 169.301H753.881ZM721.947 136.488C716.641 136.488 712.361 136.684 709.105 137.074C705.883 137.465 703.425 138.23 701.732 139.369C700.04 140.476 698.884 142.136 698.266 144.35C697.68 146.563 697.37 149.477 697.338 153.09H744.896V148.402C744.896 146.059 744.62 144.122 744.066 142.592C743.546 141.029 742.504 139.809 740.941 138.93C739.379 138.018 737.068 137.383 734.008 137.025C730.98 136.667 726.96 136.488 721.947 136.488ZM779.664 186L758.082 129.75H768.727L785.865 178.432H785.963L804.664 129.75H814.039L832.545 178.432H832.643L849.977 129.75H860.621L839.039 186H826.539L809.4 140.443H809.303L792.164 186H779.664ZM902.908 187.074C896.886 187.074 891.792 186.618 887.625 185.707C883.491 184.796 880.236 182.745 877.859 179.555V186H868.484V111H877.859V136.146C880.236 132.989 883.491 130.954 887.625 130.043C891.792 129.132 896.886 128.676 902.908 128.676C909.223 128.676 914.562 129.001 918.924 129.652C923.318 130.303 926.867 131.605 929.568 133.559C932.27 135.512 934.24 138.409 935.477 142.25C936.714 146.091 937.332 151.202 937.332 157.582C937.332 164.158 936.714 169.415 935.477 173.354C934.24 177.292 932.27 180.255 929.568 182.24C926.867 184.193 923.318 185.479 918.924 186.098C914.562 186.749 909.223 187.074 902.908 187.074ZM927.957 157.582C927.957 152.927 927.713 149.2 927.225 146.4C926.769 143.601 925.743 141.501 924.148 140.102C922.553 138.669 920.063 137.709 916.678 137.221C913.325 136.732 908.735 136.488 902.908 136.488C897.602 136.488 893.305 136.732 890.018 137.221C886.73 137.709 884.207 138.669 882.449 140.102C880.691 141.501 879.487 143.601 878.836 146.4C878.185 149.2 877.859 152.927 877.859 157.582C877.859 162.4 878.185 166.257 878.836 169.154C879.487 172.051 880.691 174.232 882.449 175.697C884.207 177.13 886.73 178.09 890.018 178.578C893.305 179.034 897.602 179.262 902.908 179.262C908.735 179.262 913.325 179.034 916.678 178.578C920.063 178.09 922.553 177.13 924.148 175.697C925.743 174.232 926.769 172.051 927.225 169.154C927.713 166.257 927.957 162.4 927.957 157.582ZM946.27 186V132.875H955.645V186H946.27ZM946.27 120.375V111H955.645V120.375H946.27ZM1030.55 169.301C1030.55 173.5 1029.91 176.804 1028.64 179.213C1027.41 181.622 1025.5 183.38 1022.93 184.486C1020.36 185.593 1017.07 186.293 1013.07 186.586C1009.1 186.911 1004.36 187.074 998.859 187.074C992.577 187.074 987.238 186.749 982.844 186.098C978.482 185.479 974.95 184.193 972.248 182.24C969.579 180.255 967.626 177.292 966.389 173.354C965.184 169.415 964.582 164.158 964.582 157.582C964.582 151.202 965.168 146.091 966.34 142.25C967.544 138.409 969.481 135.512 972.15 133.559C974.82 131.605 978.319 130.303 982.648 129.652C987.01 129.001 992.333 128.676 998.615 128.676C1005.81 128.676 1011.77 129.18 1016.49 130.189C1021.21 131.199 1024.72 133.119 1027.03 135.951C1029.38 138.783 1030.55 142.934 1030.55 148.402V160.463H974.006C974.038 164.63 974.331 167.966 974.885 170.473C975.438 172.979 976.545 174.867 978.205 176.137C979.865 177.406 982.339 178.253 985.627 178.676C988.947 179.066 993.358 179.262 998.859 179.262C1003.81 179.262 1007.79 179.164 1010.82 178.969C1013.88 178.773 1016.19 178.35 1017.76 177.699C1019.35 177.016 1020.43 176.007 1020.98 174.672C1021.53 173.337 1021.81 171.547 1021.81 169.301H1030.55ZM998.615 136.488C993.309 136.488 989.029 136.684 985.773 137.074C982.551 137.465 980.093 138.23 978.4 139.369C976.708 140.476 975.552 142.136 974.934 144.35C974.348 146.563 974.038 149.477 974.006 153.09H1021.56V148.402C1021.56 146.059 1021.29 144.122 1020.73 142.592C1020.21 141.029 1019.17 139.809 1017.61 138.93C1016.05 138.018 1013.74 137.383 1010.68 137.025C1007.65 136.667 1003.63 136.488 998.615 136.488ZM1072.49 187.074C1065.66 187.074 1060.16 186.846 1055.99 186.391C1051.86 185.935 1048.71 185.089 1046.57 183.852C1044.45 182.615 1043.02 180.857 1042.27 178.578C1041.55 176.299 1041.2 173.337 1041.2 169.691H1050.18C1050.18 171.742 1050.33 173.402 1050.62 174.672C1050.91 175.909 1051.74 176.869 1053.11 177.553C1054.48 178.204 1056.69 178.66 1059.75 178.92C1062.84 179.148 1067.17 179.262 1072.74 179.262C1078.63 179.262 1083.2 179.148 1086.46 178.92C1089.75 178.66 1092.11 178.204 1093.54 177.553C1094.97 176.869 1095.83 175.893 1096.13 174.623C1096.45 173.354 1096.62 171.677 1096.62 169.594C1096.62 167.055 1096.39 165.15 1095.93 163.881C1095.48 162.611 1094.4 161.765 1092.71 161.342C1091.02 160.886 1088.31 160.642 1084.6 160.609L1062.24 160.365C1056.48 160.3 1052.08 159.812 1049.06 158.9C1046.03 157.989 1043.96 156.394 1042.86 154.115C1041.75 151.804 1041.2 148.533 1041.2 144.301C1041.2 140.362 1041.8 137.318 1043 135.17C1044.24 133.021 1046.16 131.492 1048.76 130.58C1051.37 129.669 1054.75 129.132 1058.92 128.969C1063.09 128.773 1068.12 128.676 1074.01 128.676C1080.94 128.676 1086.44 128.887 1090.51 129.311C1094.61 129.734 1097.67 130.531 1099.69 131.703C1101.74 132.875 1103.08 134.584 1103.7 136.83C1104.35 139.044 1104.67 141.941 1104.67 145.521H1095.69C1095.69 143.406 1095.54 141.745 1095.25 140.541C1094.96 139.304 1094.16 138.409 1092.86 137.855C1091.59 137.27 1089.5 136.895 1086.61 136.732C1083.74 136.57 1079.7 136.488 1074.5 136.488C1068.57 136.488 1063.97 136.553 1060.68 136.684C1057.39 136.814 1055.01 137.123 1053.55 137.611C1052.08 138.1 1051.19 138.881 1050.86 139.955C1050.54 140.997 1050.38 142.445 1050.38 144.301C1050.38 146.189 1050.47 147.686 1050.67 148.793C1050.9 149.867 1051.47 150.681 1052.38 151.234C1053.29 151.788 1054.77 152.162 1056.82 152.357C1058.9 152.52 1061.8 152.618 1065.51 152.65L1084.8 152.846C1090.59 152.911 1094.99 153.399 1097.98 154.311C1101.01 155.189 1103.06 156.833 1104.13 159.242C1105.24 161.618 1105.79 165.069 1105.79 169.594C1105.79 173.663 1105.19 176.869 1103.99 179.213C1102.82 181.557 1100.93 183.298 1098.32 184.438C1095.72 185.544 1092.29 186.26 1088.02 186.586C1083.79 186.911 1078.61 187.074 1072.49 187.074Z" fill="#4CAF50"/>
<path d="M137 50V84" stroke="#4CAF50" stroke-width="10" stroke-linecap="square"/>
<path d="M124 84.4449L107 55" stroke="#4CAF50" stroke-width="10" stroke-linecap="square"/>
<path d="M167 55L150 84.4449" stroke="#4CAF50" stroke-width="10" stroke-linecap="square"/>
<rect x="118" y="131" width="12" height="9" fill="#4CAF50"/>
<rect x="144" y="131" width="12" height="9" fill="#4CAF50"/>
<path d="M123.261 160.924C123.102 160.686 123.175 160.363 123.422 160.217L136.849 152.264C137.006 152.171 137.201 152.171 137.358 152.264L150.785 160.217C151.032 160.363 151.106 160.686 150.947 160.924L137.52 181.074C137.322 181.371 136.885 181.371 136.688 181.074L123.261 160.924Z" fill="#D9D9D9" stroke="#4CAF50" stroke-width="5"/>
<path d="M190.998 184.297C183.531 195.783 172.799 204.607 160.275 209.558C147.75 214.508 134.047 215.344 121.043 211.95C108.04 208.556 96.3739 201.098 87.6451 190.599C78.9163 180.101 73.5524 167.076 72.289 153.311C71.0255 139.546 73.9246 125.715 80.5884 113.715C87.2522 101.715 97.3545 92.1348 109.51 86.2871C121.665 80.4395 135.277 78.6113 148.48 81.0532C161.683 83.4952 173.83 90.0878 183.254 99.9267L176.946 106.346C168.807 97.8486 158.317 92.1551 146.915 90.0461C135.512 87.9371 123.756 89.516 113.258 94.5663C102.761 99.6165 94.0361 107.891 88.281 118.254C82.5259 128.617 80.0222 140.562 81.1133 152.45C82.2044 164.338 86.8369 175.587 94.3754 184.654C101.914 193.721 111.989 200.162 123.219 203.093C134.449 206.024 146.284 205.303 157.101 201.027C167.917 196.751 177.186 189.131 183.634 179.211L190.998 184.297Z" fill="#4CAF50"/>
</svg>
